<mxfile host="65bd71144e" modified="2021-01-30T13:29:08.215Z" agent="5.0 (Windows NT 10.0; Win64; x64) AppleWebKit/537.36 (KHTML, like Gecko) Code/1.52.1 Chrome/83.0.4103.122 Electron/9.3.5 Safari/537.36" etag="bJy4_J57FhFTfVnnJ6QF" version="13.10.0" type="embed">
    <diagram id="BX-o9SNdRqZX2alcGkZc" name="Page-1">
        <mxGraphModel dx="412" dy="543" grid="1" gridSize="10" guides="1" tooltips="1" connect="1" arrows="1" fold="1" page="1" pageScale="1" pageWidth="850" pageHeight="1100" math="0" shadow="0">
            <root>
                <mxCell id="0"/>
                <mxCell id="1" parent="0"/>
                <mxCell id="3" value="" style="edgeStyle=orthogonalEdgeStyle;rounded=0;orthogonalLoop=1;jettySize=auto;html=1;" edge="1" parent="1" source="HsPhGBMultQNT1cwHAyU-1" target="HsPhGBMultQNT1cwHAyU-5">
                    <mxGeometry relative="1" as="geometry"/>
                </mxCell>
                <mxCell id="HsPhGBMultQNT1cwHAyU-1" value="BeforeStart" style="rounded=0;whiteSpace=wrap;html=1;fillColor=#d5e8d4;strokeColor=#82b366;" parent="1" vertex="1">
                    <mxGeometry x="320" y="330" width="120" height="60" as="geometry"/>
                </mxCell>
                <mxCell id="HsPhGBMultQNT1cwHAyU-4" value="AfterAll" style="rounded=0;whiteSpace=wrap;html=1;fillColor=#d5e8d4;strokeColor=#82b366;" parent="1" vertex="1">
                    <mxGeometry x="320" y="760" width="120" height="60" as="geometry"/>
                </mxCell>
                <mxCell id="HsPhGBMultQNT1cwHAyU-15" style="edgeStyle=orthogonalEdgeStyle;rounded=0;orthogonalLoop=1;jettySize=auto;html=1;exitX=0.5;exitY=1;exitDx=0;exitDy=0;entryX=0.5;entryY=0;entryDx=0;entryDy=0;" parent="1" source="HsPhGBMultQNT1cwHAyU-5" target="HsPhGBMultQNT1cwHAyU-14" edge="1">
                    <mxGeometry relative="1" as="geometry"/>
                </mxCell>
                <mxCell id="HsPhGBMultQNT1cwHAyU-5" value="LoadTests" style="shape=process;whiteSpace=wrap;html=1;backgroundOutline=1;fillColor=#dae8fc;strokeColor=#6c8ebf;" parent="1" vertex="1">
                    <mxGeometry x="320" y="440" width="120" height="60" as="geometry"/>
                </mxCell>
                <mxCell id="HsPhGBMultQNT1cwHAyU-19" style="edgeStyle=orthogonalEdgeStyle;rounded=0;orthogonalLoop=1;jettySize=auto;html=1;exitX=0.5;exitY=1;exitDx=0;exitDy=0;entryX=0.5;entryY=0;entryDx=0;entryDy=0;" parent="1" source="HsPhGBMultQNT1cwHAyU-14" target="HsPhGBMultQNT1cwHAyU-4" edge="1">
                    <mxGeometry relative="1" as="geometry"/>
                </mxCell>
                <mxCell id="HsPhGBMultQNT1cwHAyU-14" value="Execution of tests" style="swimlane;" parent="1" vertex="1">
                    <mxGeometry x="80" y="540" width="600" height="180" as="geometry"/>
                </mxCell>
                <mxCell id="HsPhGBMultQNT1cwHAyU-2" value="BeforeEach" style="rounded=0;whiteSpace=wrap;html=1;fillColor=#d5e8d4;strokeColor=#82b366;" parent="HsPhGBMultQNT1cwHAyU-14" vertex="1">
                    <mxGeometry x="80" y="60" width="120" height="60" as="geometry"/>
                </mxCell>
                <mxCell id="HsPhGBMultQNT1cwHAyU-18" style="edgeStyle=orthogonalEdgeStyle;rounded=0;orthogonalLoop=1;jettySize=auto;html=1;exitX=0.5;exitY=1;exitDx=0;exitDy=0;entryX=0.5;entryY=1;entryDx=0;entryDy=0;" parent="HsPhGBMultQNT1cwHAyU-14" source="HsPhGBMultQNT1cwHAyU-3" target="HsPhGBMultQNT1cwHAyU-2" edge="1">
                    <mxGeometry relative="1" as="geometry"/>
                </mxCell>
                <mxCell id="HsPhGBMultQNT1cwHAyU-3" value="AfterEach" style="rounded=0;whiteSpace=wrap;html=1;fillColor=#d5e8d4;strokeColor=#82b366;" parent="HsPhGBMultQNT1cwHAyU-14" vertex="1">
                    <mxGeometry x="390" y="60" width="120" height="60" as="geometry"/>
                </mxCell>
                <mxCell id="HsPhGBMultQNT1cwHAyU-17" style="edgeStyle=orthogonalEdgeStyle;rounded=0;orthogonalLoop=1;jettySize=auto;html=1;exitX=1;exitY=0.5;exitDx=0;exitDy=0;entryX=0;entryY=0.5;entryDx=0;entryDy=0;" parent="HsPhGBMultQNT1cwHAyU-14" source="HsPhGBMultQNT1cwHAyU-6" target="HsPhGBMultQNT1cwHAyU-3" edge="1">
                    <mxGeometry relative="1" as="geometry"/>
                </mxCell>
                <mxCell id="HsPhGBMultQNT1cwHAyU-6" value="ExecuteTest" style="shape=process;whiteSpace=wrap;html=1;backgroundOutline=1;fillColor=#dae8fc;strokeColor=#6c8ebf;" parent="HsPhGBMultQNT1cwHAyU-14" vertex="1">
                    <mxGeometry x="240" y="60" width="120" height="60" as="geometry"/>
                </mxCell>
                <mxCell id="HsPhGBMultQNT1cwHAyU-16" style="edgeStyle=orthogonalEdgeStyle;rounded=0;orthogonalLoop=1;jettySize=auto;html=1;exitX=1;exitY=0.5;exitDx=0;exitDy=0;entryX=0;entryY=0.5;entryDx=0;entryDy=0;" parent="HsPhGBMultQNT1cwHAyU-14" source="HsPhGBMultQNT1cwHAyU-2" target="HsPhGBMultQNT1cwHAyU-6" edge="1">
                    <mxGeometry relative="1" as="geometry"/>
                </mxCell>
                <mxCell id="2" style="edgeStyle=orthogonalEdgeStyle;rounded=0;orthogonalLoop=1;jettySize=auto;html=1;exitX=0.5;exitY=1;exitDx=0;exitDy=0;entryX=0.5;entryY=0;entryDx=0;entryDy=0;" edge="1" parent="1" source="HsPhGBMultQNT1cwHAyU-20" target="HsPhGBMultQNT1cwHAyU-1">
                    <mxGeometry relative="1" as="geometry"/>
                </mxCell>
                <mxCell id="HsPhGBMultQNT1cwHAyU-20" value="LoginCordeBot" style="shape=process;whiteSpace=wrap;html=1;backgroundOutline=1;fillColor=#dae8fc;strokeColor=#6c8ebf;" parent="1" vertex="1">
                    <mxGeometry x="320" y="220" width="120" height="60" as="geometry"/>
                </mxCell>
            </root>
        </mxGraphModel>
    </diagram>
</mxfile>